HIERARCHY
ROOT Hips
{
	OFFSET 0.00000 0.00000 0.00000
	CHANNELS 6 Xposition Yposition Zposition Zrotation Yrotation Xrotation 
	JOINT LHipJoint
	{
		OFFSET 0 0 0
		CHANNELS 3 Zrotation Yrotation Xrotation
		JOINT LeftHip
		{
			OFFSET 1.62067 -1.77917 0.70989
			CHANNELS 3 Zrotation Yrotation Xrotation
			JOINT LeftKnee
			{
				OFFSET 2.34532 -6.44371 0.00000
				CHANNELS 3 Zrotation Yrotation Xrotation
				JOINT LeftAnkle
				{
					OFFSET 2.74224 -7.53425 0.00000
					CHANNELS 3 Zrotation Yrotation Xrotation
					JOINT LeftToe
					{
						OFFSET 0.17032 -0.46794 2.08086
						CHANNELS 3 Zrotation Yrotation Xrotation
						End Site
						{
							OFFSET 0.00000 -0.00000 1.07476
						}
					}
				}
			}
		}
	}
	JOINT RHipJoint
	{
		OFFSET 0 0 0
		CHANNELS 3 Zrotation Yrotation Xrotation
		JOINT RightHip
		{
			OFFSET -1.55811 -1.77917 0.70989
			CHANNELS 3 Zrotation Yrotation Xrotation
			JOINT RightKnee
			{
				OFFSET -2.33243 -6.40830 0.00000
				CHANNELS 3 Zrotation Yrotation Xrotation
				JOINT RightAnkle
				{
					OFFSET -2.78798 -7.65993 0.00000
					CHANNELS 3 Zrotation Yrotation Xrotation
					JOINT RightToe
					{
						OFFSET -0.22707 -0.62388 2.04059
						CHANNELS 3 Zrotation Yrotation Xrotation
						End Site
						{
							OFFSET -0.00000 -0.00000 1.07030
						}
					}
				}
			}
		}
	}
	JOINT lowerback
	{
		OFFSET 0 0 0
		CHANNELS 3 Zrotation Yrotation Xrotation
		JOINT Chest
		{
			OFFSET 0.02203 1.91565 0.07161
			CHANNELS 3 Zrotation Yrotation Xrotation
			JOINT Chest2
			{
				OFFSET 0.01740 1.90525 0.11636
				CHANNELS 3 Zrotation Yrotation Xrotation
				JOINT lowerneck
				{
					OFFSET 0 0 0
					CHANNELS 3 Zrotation Yrotation Xrotation
					JOINT Neck
					{
						OFFSET -0.10841 1.83566 0.05067
						CHANNELS 3 Zrotation Yrotation Xrotation
						JOINT Head
						{
							OFFSET 0.06601 1.74760 -0.50505
							CHANNELS 3 Zrotation Yrotation Xrotation
							End Site
							{
								OFFSET 0.03102 1.85215 -0.17697
							}
						}
					}
				}
				JOINT LeftCollar
				{
					OFFSET 0 0 0
					CHANNELS 3 Zrotation Yrotation Xrotation
					JOINT LeftShoulder
					{
						OFFSET 2.87059 1.35470 0.16111
CHANNELS 3 Zrotation Xrotation Yrotation
						JOINT LeftElbow
						{
OFFSET 0 -5.435920 0.000000
CHANNELS 3 Zrotation Xrotation Yrotation
							JOINT LeftWrist
							{
OFFSET 0 -3.254600 0.000000
CHANNELS 3 Zrotation Xrotation Yrotation
								JOINT lhand
								{
									OFFSET 0 0 0
CHANNELS 3 Zrotation Xrotation Yrotation
									JOINT LFingers
									{
OFFSET 0 -0.498240 0.000000
CHANNELS 3 Zrotation Xrotation Yrotation
										End Site
										{
OFFSET 0 -0.401700 0.000000
										}
									}
								}
								JOINT LThumb
								{
OFFSET 0 0.000000 0.000000
CHANNELS 3 Zrotation Xrotation Yrotation
									End Site
									{
OFFSET 0 -0.407830 0.407830
									}
								}
							}
						}
					}
				}
				JOINT RightCollar
				{
					OFFSET 0 0 0
					CHANNELS 3 Zrotation Yrotation Xrotation
					JOINT RightShoulder
					{
						OFFSET -2.86643 1.23488 0.45957
CHANNELS 3 Zrotation Xrotation Yrotation
						JOINT RightElbow
						{
OFFSET 0 -5.338300 0.000000
CHANNELS 3 Zrotation Xrotation Yrotation
							JOINT RightWrist
							{
OFFSET 0 -3.231480 0.000000
CHANNELS 3 Zrotation Xrotation Yrotation
								JOINT rhand
								{
									OFFSET 0 0 0
CHANNELS 3 Zrotation Xrotation Yrotation
									JOINT RFingers
									{
OFFSET 0 -0.463640 0.000000
CHANNELS 3 Zrotation Xrotation Yrotation
										End Site
										{
OFFSET 0 -0.373800 0.000000
										}
									}
								}
								JOINT RThumb
								{
OFFSET 0 0.000000 0.000000
CHANNELS 3 Zrotation Xrotation Yrotation
									End Site
									{
OFFSET 0 -0.379510 0.379510
									}
								}
							}
						}
					}
				}
			}
		}
	}
}
MOTION
Frames: 4
Frame Time: 0.008333333333333333
-0.956900 17.405900 5.563600 25.459200 -78.039900 -5.048000 0.000000 0.000000 0.000000 -34.942100 -2.339700 -16.702700 0.266500 3.321100 9.174000 0.459200 -5.279200 -12.085400 0.932300 6.150600 17.221900 0.000000 0.000000 0.000000 -10.186900 8.829100 -9.717800 -1.196700 -6.941200 19.541200 1.446400 -21.246300 -2.908800 -1.329800 7.302400 -20.614400 5.747800 -1.018700 -11.242800 0.383000 -2.502800 -13.723100 -2.819000 -2.142000 -8.628600 9.967100 17.959800 -7.189100 0.985600 22.961000 12.135100 0.672300 11.700700 5.825600 -0.000000 0.000000 0.000000 122.080300 -11.085100 34.542000 15.631900 -25.019100 3.488800 23.521300 -55.383400 16.877000 0.000000 0.000000 0.000000 -7.125000 0.000000 0.000000 -2.867500 11.689200 -2.230000 -0.000000 0.000000 0.000000 -111.773200 15.758800 -24.839400 -136.401500 -50.063100 -98.841400 -5.696900 -56.509500 47.044300 0.000000 0.000000 0.000000 7.125000 0.000000 -0.000000 52.957400 70.731000 -35.511700
-0.955536 17.391112 5.570549 26.209707 -77.801613 -6.169715 0.000000 0.000000 0.000000 -35.253341 -2.327518 -16.241290 0.277569 3.388302 9.361696 0.451016 -5.730430 -12.017427 1.000906 6.366267 17.851031 0.000000 0.000000 0.000000 -10.405982 9.664952 -8.603678 -1.149089 -6.806432 19.143224 1.476512 -20.988228 -6.689842 -0.587444 4.700301 -13.092043 5.952491 -1.073525 -11.026028 0.281371 -2.557081 -13.535012 -3.042324 -2.176643 -8.559080 9.883843 18.072957 -6.965478 0.704197 23.192807 12.030025 0.600533 11.793765 5.789211 0.000000 0.000000 0.000000 121.926741 -10.621684 33.797790 15.718538 -25.137539 3.525591 24.755542 -54.327307 12.288785 0.000000 0.000000 0.000000 -7.125000 0.000000 0.000000 -1.730107 16.523402 -1.219728 0.000000 0.000000 0.000000 -111.764197 15.208379 -25.092561 -136.577204 -49.971833 -98.976005 -4.351837 -57.868988 48.216776 0.000000 0.000000 0.000000 7.125000 0.000000 0.000000 56.923182 70.902802 -38.861637
-0.946620 17.393702 5.558992 25.037239 -77.599245 -5.055598 0.000000 0.000000 0.000000 -35.005728 -2.183591 -16.519045 0.298183 3.511047 9.705032 0.442312 -6.181104 -11.959924 1.020521 6.426542 18.027340 0.000000 0.000000 0.000000 -10.219748 8.874586 -8.695862 -1.126846 -6.742613 18.955014 1.333771 -19.940781 -8.335022 -0.107306 2.109066 -5.807323 6.034302 -1.129320 -10.907757 0.180821 -2.624847 -13.481184 -3.194518 -2.218885 -8.583245 11.017157 18.113803 -6.848503 0.016397 23.221521 12.067653 0.301225 11.803259 5.998249 0.000000 0.000000 0.000000 122.271693 -10.630858 34.279784 15.848566 -25.314831 3.580993 25.239514 -56.347321 16.788528 0.000000 0.000000 0.000000 -7.125000 0.000000 0.000000 -1.730269 11.538102 -1.344685 0.000000 0.000000 0.000000 -111.337476 15.157642 -25.009441 -136.251000 -50.140676 -98.725961 -3.609661 -58.494815 45.716011 0.000000 0.000000 0.000000 7.125000 0.000000 0.000000 51.782645 69.248428 -33.060597
-0.937231 17.396758 5.548648 24.678298 -77.357808 -4.507899 0.000000 0.000000 0.000000 -35.363465 -1.031664 -17.449605 0.308498 3.570904 9.872538 0.403907 -7.221573 -11.649854 1.065694 6.561165 18.422279 0.000000 0.000000 0.000000 -10.152803 9.664887 -8.416041 -1.123531 -6.732881 18.926356 1.135908 -18.980066 -11.924808 -0.025450 -1.012879 2.784275 6.013002 -0.910025 -11.055395 0.054192 -2.341679 -13.447320 -3.319523 -2.075951 -8.435541 10.407461 17.847294 -7.331332 0.479232 22.810937 12.267860 0.498264 11.608344 5.996201 0.000000 0.000000 0.000000 122.215503 -11.098359 34.371622 15.852025 -25.319606 3.582429 27.150186 -58.156362 18.448997 0.000000 0.000000 0.000000 -7.125000 0.000000 0.000000 -0.633244 9.428611 -0.521364 0.000000 0.000000 0.000000 -111.172800 15.632159 -24.988928 -136.371875 -50.078411 -98.818689 -2.906635 -59.013737 46.117645 0.000000 0.000000 0.000000 7.125000 0.000000 0.000000 53.247898 69.256059 -34.177231
